# xmcd CD database file
#
# Track frame offsets:
#	150
#	8659
#	24905
#	42317
#	58234
#	78549
#	104666
#	127583
#	144862
#	164562
#	189099
#	207982
#	226769
#	245554
#	265642
#	279445
#	298834
#	318636
#
# Disc length: 4474 seconds
#
# Revision: 0
# Processed by: cddbd v1.5.2PL0 Copyright (c) Steve Scherf et al.
# Submitted via: CDex 1.70beta2
#
DISCID=f6117812
DTITLE=Alicia Keys - songs in A minor
DYEAR=2002
DGENRE=Blues
TTITLE0=Alicia Keys - Piano And I
TTITLE1=Alicia Keys - Girlfriend
TTITLE2=Alicia Keys - How Come You Don't Call Me
TTITLE3=Alicia Keys - Fallin'
TTITLE4=Alicia Keys - Troubles
TTITLE5=Alicia Keys - Rock Wit U
TTITLE6=Alicia Keys - A Woman's Worth
TTITLE7=Alicia Keys - Jane Doe
TTITLE8=Alicia Keys - Goodbye
TTITLE9=Alicia Keys - The Life
TTITLE10=Alicia Keys - Mr Man (Duet with Jimmy Cozier
TTITLE11=Alicia Keys - Never Felt This Way
TTITLE12=Alicia Keys - Butterflyz
TTITLE13=Alicia Keys - Why Do I Feel So Sad
TTITLE14=Alicia Keys - Caged Bird
TTITLE15=Alicia Keys - FALLIN' (Remix Feat. Busta Rhy
TTITLE16=Alicia Keys - A Woman's Worth (Remix)
TTITLE17=Alicia Keys - 18 - Loving You (Bonus Track)
EXTD=YEAR: 2002
EXTT0=
EXTT1=
EXTT2=
EXTT3=
EXTT4=
EXTT5=
EXTT6=
EXTT7=
EXTT8=
EXTT9=
EXTT10=
EXTT11=
EXTT12=
EXTT13=
EXTT14=
EXTT15=
EXTT16=
EXTT17=
PLAYORDER=
